<?xml version="1.0" standalone="no"?>
<!DOCTYPE svg PUBLIC "-//W3C//DTD SVG 1.1//EN" "http://www.w3.org/Graphics/SVG/1.1/DTD/svg11.dtd">
<svg xmlns="http://www.w3.org/2000/svg">
<defs >
<font id="Niramit" horiz-adv-x="571" ><font-face
    font-family="Niramit Bold"
    units-per-em="1000"
    panose-1="0 0 8 0 0 0 0 0 0 0"
    ascent="1105"
    descent="-195"
    alphabetic="0" />
<glyph unicode=" " glyph-name="space" horiz-adv-x="258" />
<glyph unicode="!" glyph-name="exclam" horiz-adv-x="260" d="M61 700H196L188 211H72L61 700ZM92 0T69 22T45 81Q45 118 68 140T130 162Q168 162 191 140T215 81Q215 44 192 22T130 0Q92 0 69 22Z" />
<glyph unicode="&quot;" glyph-name="quotedbl" horiz-adv-x="376" d="M35 693H167L159 503H45L35 693ZM209 693H341L333 503H219L209 693Z" />
<glyph unicode="#" glyph-name="numbersign" horiz-adv-x="721" d="M576 411L561 276H660V170H549L530 0H399L418 170H280L261 0H130L149 170H35V276H161L176 411H60V517H188L207 690H338L319 517H457L476 690H607L588 517H686V411H576ZM445 411H307L292 276H430L445
411Z" />
<glyph unicode="$" glyph-name="dollar" horiz-adv-x="605" d="M570 89T507 41T333 -10V-98H283V-9Q208 -3 144 28T35 110L114 190Q151 148 192 127T283 101V294L278 296Q159 339 107 392T54 523Q54 608 116 656T283 710V799H333V709Q395 705 452 682T552 621L483
533Q443 566 409 581T333 600V406Q336 405 347 401Q433 368 480 338T549 269T570 175Q570 89 507 41ZM190 493T209 472T283 427V600Q239 597 215 578T190 524Q190 493 209 472ZM382 101T408 121T434 175Q434 197 427 212T397 242T333 275V99Q382 101 408 121Z"
/>
<glyph unicode="%" glyph-name="percent" horiz-adv-x="811" d="M126 366T81 410T35 538Q35 621 80 665T204 710Q282 710 327 666T373 538Q373 455 328 411T204 366Q126 366 81 410ZM510 710H647L302 -10H165L510 710ZM223 470T233 487T244 538Q244 571 234 588T204
605Q185 605 175 588T164 538Q164 504 174 487T204 470Q223 470 233 487ZM529 -10T484 34T438 162Q438 245 483 289T607 334Q685 334 730 290T776 162Q776 79 731 35T607 -10Q529 -10 484 34ZM626 94T636 111T647 162Q647 195 637 212T607 229Q588 229 578 212T567
162Q567 128 577 111T607 94Q626 94 636 111Z" />
<glyph unicode="&amp;" glyph-name="ampersand" horiz-adv-x="755" d="M213 -10T155 16T66 91T35 200Q35 322 183 413Q149 451 132 483T115 557Q115 624 164 667T293 710Q345 710 385 690T448 635T470 556Q470 508 447 473T366 394L488 265Q493 297 493 321Q493
340 492 351H624Q626 325 626 314Q626 227 583 154L720 0H565L504 68Q422 -10 290 -10Q213 -10 155 16ZM316 494T328 512T340 555Q340 576 327 591T293 606Q272 606 259 592T245 555Q245 532 254 515T289 473Q316 494 328 512ZM335 99T371 112T430 150L262 327Q214
298 193 269T171 201Q171 155 204 127T294 99Q335 99 371 112Z" />
<glyph unicode="&apos;" glyph-name="quotesingle" horiz-adv-x="206" d="M35 693H171L163 503H45L35 693Z" />
<glyph unicode="(" glyph-name="parenleft" horiz-adv-x="343" d="M99 -20T67 80T35 306Q35 432 67 532T173 730H308Q232 628 202 530T171 306Q171 181 201 83T308 -118H173Q99 -20 67 80Z" />
<glyph unicode=")" glyph-name="parenright" horiz-adv-x="343" d="M111 -16T141 82T172 306Q172 431 142 529T35 730H170Q244 632 276 532T308 306Q308 180 276 80T170 -118H35Q111 -16 141 82Z" />
<glyph unicode="*" glyph-name="asterisk" horiz-adv-x="442" d="M194 335T175 350T156 389Q156 397 157 401L165 441L137 418Q120 404 97 404Q80 404 66 412T43 436Q35 449 35 466Q35 483 45 496T75 516L131 537L75 558Q56 565 46 578T36 609Q36 625 45 641Q53
655 67 662T98 670Q121 670 138 656L165 633L157 673Q156 677 156 685Q156 709 175 724T221 739Q248 739 267 724T286 685Q286 677 285 673L277 633L304 656Q321 670 344 670Q360 670 374 663T397 641Q406 625 406 609Q406 592 396 579T367 558L311 537L367 516Q386
509 396 496T407 466Q407 449 399 436Q390 420 376 412T345 404Q322 404 305 418L277 441L285 401Q286 397 286 389Q286 365 267 350T221 335Q194 335 175 350Z" />
<glyph unicode="+" glyph-name="plus" horiz-adv-x="560" d="M516 232H347V54H213V232H44V338H213V516H347V338H516V232Z" />
<glyph unicode="," glyph-name="comma" horiz-adv-x="246" d="M35 -56Q57 -47 77 -30T106 5Q79 6 61 26T43 71Q43 106 66 127T126 148Q166 148 188 125T211 61Q211 5 175 -43T70 -122L35 -56Z" />
<glyph unicode="-" glyph-name="hyphen" horiz-adv-x="522" d="M35 338H487V232H35V338Z" />
<glyph unicode="." glyph-name="period" horiz-adv-x="224" d="M79 0T57 21T35 74Q35 105 57 126T112 148Q145 148 167 127T189 74Q189 43 167 22T112 0Q79 0 57 21Z" />
<glyph unicode="/" glyph-name="slash" horiz-adv-x="476" d="M306 710H441L170 0H35L306 710Z" />
<glyph unicode="0" glyph-name="zero" horiz-adv-x="654" d="M189 -10T112 85T35 352Q35 464 69 544T170 667T327 710Q418 710 484 668T584 545T619 352Q619 181 542 86T327 -10Q189 -10 112 85ZM401 99T442 163T483 352Q483 474 443 537T327 601Q252 601 212
538T171 352Q171 228 212 164T327 99Q401 99 442 163Z" />
<glyph unicode="1" glyph-name="one" horiz-adv-x="384" d="M186 500L101 428L25 515L232 687Q260 710 284 710Q307 710 328 688Q349 666 349 646Q349 627 327 608L320 602V0H186V500Z" />
<glyph unicode="2" glyph-name="two" horiz-adv-x="643" d="M62 0T49 9T35 45Q35 87 46 100T85 114Q112 164 155 201T273 287Q328 322 360 347T413 405T435 476Q435 537 407 569T320 601Q250 601 216 564T174 437L47 449Q49 528 83 587T178 678T320 710Q440 710
505 647T571 476Q571 420 545 376T481 301T382 229Q329 193 299 169T250 116H463L491 180L608 140L547 0H97Q62 0 49 9Z" />
<glyph unicode="3" glyph-name="three" horiz-adv-x="670" d="M226 -10T147 43T35 200L158 240Q177 166 223 133T343 99Q499 99 499 231Q499 288 470 317T390 347Q369 347 349 341L335 323Q317 300 299 300Q281 300 247 323Q226 338 226 353Q226 367 241 391L374
594H212L182 506L79 572L123 700H542Q570 700 584 693T598 666Q598 655 592 637Q583 611 570 603T530 594H510L409 442Q430 449 459 449Q507 449 547 424T611 350T635 231Q635 159 601 105T500 20T343 -10Q226 -10 147 43Z" />
<glyph unicode="4" glyph-name="four" horiz-adv-x="639" d="M381 141H84Q57 141 41 155T25 190Q25 211 41 230L419 682Q443 709 469 709Q490 709 508 694Q538 670 538 649Q538 637 527 621L515 605V247H604V141H515V0H381V141ZM388 247V476L197 247H388Z" />
<glyph unicode="5" glyph-name="five" horiz-adv-x="643" d="M232 -10T158 22T35 117L117 197Q166 142 211 121T320 99Q390 99 431 135T472 250Q472 326 433 362T329 398Q273 398 235 374T164 296L67 331L103 603Q92 606 87 613T82 633Q82 645 84 653Q89 681 100
690T136 700H563V589H218L201 462Q260 507 343 507Q465 507 536 441T608 250Q608 166 572 108T470 20T321 -10Q232 -10 158 22Z" />
<glyph unicode="6" glyph-name="six" horiz-adv-x="641" d="M189 -10T112 77T35 334Q35 457 72 541T178 668T338 710Q443 710 502 665T579 541L469 503Q453 552 423 576T336 601Q284 601 243 574T178 495T154 372H159Q192 418 242 443T355 469Q431 469 488 440T575
358T606 233Q606 161 574 106T480 21T334 -10Q189 -10 112 77ZM398 99T434 134T470 233Q470 293 434 326T334 360Q268 360 231 327T194 233Q194 170 231 135T334 99Q398 99 434 134Z" />
<glyph unicode="7" glyph-name="seven" horiz-adv-x="616" d="M184 116T207 205T280 371T415 542Q430 559 430 589H159L167 544L48 494L26 622Q25 627 25 636Q25 664 42 682T89 700H539Q571 700 581 689T591 642Q591 615 582 604T554 593Q552 559 546 538T517
492Q435 401 395 337T338 204T321 31V0H187Q184 116 207 205Z" />
<glyph unicode="8" glyph-name="eight" horiz-adv-x="640" d="M185 -10T110 45T35 199Q35 255 69 298T158 363Q116 383 90 423T64 507Q64 601 132 655T320 710Q439 710 507 656T576 507Q576 463 550 423T482 363Q537 341 571 298T605 199Q605 100 530 45T320 -10Q185
-10 110 45ZM375 408T407 434T440 506Q440 552 408 576T320 601Q264 601 232 577T200 506Q200 460 232 434T320 408Q375 408 407 434ZM392 99T430 125T469 200Q469 252 431 280T320 309Q248 309 210 281T171 200Q171 152 209 126T320 99Q392 99 430 125Z" />
<glyph unicode="9" glyph-name="nine" horiz-adv-x="641" d="M207 -10T143 35T62 159L172 197Q204 99 315 99Q393 99 440 159T487 328H482Q413 231 296 231Q217 231 158 260T67 342T35 467Q35 539 67 594T161 679T307 710Q452 710 529 622T606 363Q606 178 529
84T313 -10Q207 -10 143 35ZM373 340T410 373T447 467Q447 530 410 565T307 601Q243 601 207 566T171 467Q171 407 207 374T307 340Q373 340 410 373Z" />
<glyph unicode=":" glyph-name="colon" horiz-adv-x="232" d="M81 364T58 386T35 442Q35 475 58 498T116 522Q151 522 174 499T197 442Q197 410 174 387T116 364Q81 364 58 386ZM81 3T58 25T35 81Q35 114 58 137T116 161Q151 161 174 138T197 81Q197 49 174 26T116
3Q81 3 58 25Z" />
<glyph unicode=";" glyph-name="semicolon" horiz-adv-x="241" d="M89 364T66 386T43 442Q43 475 66 498T124 522Q159 522 182 499T205 442Q205 410 182 387T124 364Q89 364 66 386ZM35 -56Q57 -47 77 -30T106 5Q79 6 61 26T43 71Q43 106 66 127T126 148Q165 148
185 125T206 61Q206 4 172 -43T70 -122L35 -56Z" />
<glyph unicode="&lt;" glyph-name="less" horiz-adv-x="619" d="M77 214Q55 223 45 235T35 268Q35 296 47 313T84 330Q93 330 97 329L109 327L584 526V401L228 263L584 126V1L77 214Z" />
<glyph unicode="=" glyph-name="equal" horiz-adv-x="560" d="M70 435H490V329H70V435ZM70 241H490V135H70V241Z" />
<glyph unicode="&gt;" glyph-name="greater" horiz-adv-x="619" d="M35 126L391 263L35 401V526L510 327L522 329Q526 330 535 330Q559 330 571 313T584 268Q584 248 574 236T542 214L35 1V126Z" />
<glyph unicode="?" glyph-name="question" horiz-adv-x="534" d="M195 246Q195 282 208 310T240 358T290 405Q327 437 345 460T363 514Q363 556 342 578T275 601Q228 601 197 576T144 496L35 547Q61 624 127 667T278 710Q346 710 396 685T472 615T499 514Q499
478 486 450T455 403T405 359Q366 327 348 304T329 246V211H195V246ZM225 0T202 22T178 81Q178 118 201 140T263 162Q301 162 324 140T348 81Q348 44 325 22T263 0Q225 0 202 22Z" />
<glyph unicode="@" glyph-name="at" horiz-adv-x="879" d="M307 -40T219 5T83 134T35 333Q35 455 85 547T226 690T440 740Q564 740 655 697T795 576T844 392Q844 311 816 251T739 158T627 125Q594 125 564 144T518 196H516Q496 161 461 143T386 124Q312 124 266
175T220 315Q220 399 246 458T320 548T427 579Q460 579 485 567T526 533L533 565H633L582 279Q581 274 581 264Q581 245 589 235T613 224Q657 224 682 269T708 392Q708 514 642 572T440 631Q312 631 242 553T171 333Q171 206 237 138T427 69Q543 69 628 107V7Q548
-40 427 -40Q307 -40 219 5ZM432 225T452 252T482 345Q486 370 486 396Q486 442 472 465T432 488Q391 488 368 443T344 318Q344 272 359 249T402 225Q432 225 452 252Z" />
<glyph unicode="A" glyph-name="A" horiz-adv-x="714" d="M284 660Q305 718 362 718Q398 718 419 703T440 662Q440 656 436 644L679 0H539L473 185H241L175 0H35L284 660ZM444 291L358 532L272 291H444Z" />
<glyph unicode="B" glyph-name="B" horiz-adv-x="622" d="M65 576Q65 597 60 608T45 628Q41 632 38 636T35 646Q35 649 37 655Q45 678 63 698T102 718Q124 718 140 700H341Q444 700 505 649T567 509Q567 457 546 424T479 367V363Q533 338 560 302T587 213Q587
112 522 56T344 0H65V576ZM334 417Q380 417 405 441T431 509Q431 549 406 571T334 594H197V417H334ZM339 106Q394 106 422 133T451 213Q451 260 423 285T339 311H197V106H339Z" />
<glyph unicode="C" glyph-name="C" horiz-adv-x="654" d="M214 -10T125 85T35 351Q35 521 122 615T368 710Q440 710 500 685T597 616L545 526Q509 564 470 582T368 601Q273 601 222 536T171 351Q171 232 225 166T378 99Q430 99 469 116T541 171L619 97Q579 48
514 19T376 -10Q214 -10 125 85Z" />
<glyph unicode="D" glyph-name="D" horiz-adv-x="663" d="M65 576Q65 597 60 608T45 628Q41 632 38 636T35 646Q35 649 37 655Q45 678 63 698T102 718Q124 718 140 700H278Q386 700 465 657T586 535T628 352Q628 187 538 94T283 0H65V576ZM283 116Q389 116 440
174T492 352Q492 465 437 524T275 584H199V116H283Z" />
<glyph unicode="E" glyph-name="E" horiz-adv-x="553" d="M65 576Q65 597 60 608T45 628Q41 632 38 636T35 646Q35 649 37 655Q45 678 63 698T102 718Q124 718 140 700H509V584H199V422H425V312H199V116H518V0H65V576Z" />
<glyph unicode="F" glyph-name="F" horiz-adv-x="544" d="M65 576Q65 597 60 608T45 628Q41 632 38 636T35 646Q35 649 37 655Q45 678 63 698T102 718Q124 718 140 700H509V584H199V409H425V299H199V0H65V576Z" />
<glyph unicode="G" glyph-name="G" horiz-adv-x="676" d="M263 -10T189 33T75 157T35 351Q35 521 122 615T368 710Q440 710 500 685T597 616L545 526Q509 564 470 582T368 601Q273 601 222 536T171 351Q171 233 223 166T368 99Q406 99 430 104T477 123V281H324V392H536Q553
410 574 410Q594 410 612 390T639 347Q641 341 641 338Q641 333 638 329T631 320Q622 312 617 301T611 268V66Q546 25 491 8T366 -10Q263 -10 189 33Z" />
<glyph unicode="H" glyph-name="H" horiz-adv-x="631" d="M45 700H179V425H452V700H586V0H452V311H179V0H45V700Z" />
<glyph unicode="I" glyph-name="I" horiz-adv-x="304" d="M85 700H219V0H85V700Z" />
<glyph unicode="J" glyph-name="J" horiz-adv-x="451" d="M150 -10T105 4T25 46L78 137Q109 118 136 110T195 101Q238 101 257 122T277 191V700H411V194Q411 101 355 46T199 -10Q150 -10 105 4Z" />
<glyph unicode="K" glyph-name="K" horiz-adv-x="626" d="M45 700H179V457L397 700H560L256 366L591 0H427L179 274V0H45V700Z" />
<glyph unicode="L" glyph-name="L" horiz-adv-x="534" d="M79 -10T62 6T37 45Q35 51 35 54Q35 59 38 63T45 72Q54 80 59 91T65 124V700H199V116H499V0H140Q122 -10 99 -10Q79 -10 62 6Z" />
<glyph unicode="M" glyph-name="M" horiz-adv-x="799" d="M379 -10T363 0T340 28L210 436L170 -1H35L104 630L100 638Q94 649 94 662Q94 685 111 701T162 718Q203 718 221 704T250 655L399 190L549 655Q560 689 578 703T637 718Q670 718 687 702T705 662Q705 649
699 638L695 631L764 -1H629L589 437L471 66L474 56Q477 47 477 40Q477 16 456 3T402 -10Q379 -10 363 0Z" />
<glyph unicode="N" glyph-name="N" horiz-adv-x="628" d="M58 597Q58 608 55 614T45 628Q35 640 35 650Q35 659 37 664Q45 690 65 704T111 718Q150 718 169 688L449 240V700H583V0H470L192 443V0H58V597Z" />
<glyph unicode="O" glyph-name="O" horiz-adv-x="692" d="M248 -10T178 34T72 160T35 350Q35 459 71 540T178 665T346 710Q444 710 514 666T620 540T657 350Q657 241 621 160T514 35T346 -10Q248 -10 178 34ZM431 99T476 165T521 350Q521 468 476 534T346 601Q261
601 216 535T171 350Q171 232 216 166T346 99Q431 99 476 165Z" />
<glyph unicode="P" glyph-name="P" horiz-adv-x="613" d="M61 594Q61 615 47 627Q41 633 38 637T35 651Q35 657 36 660Q41 685 59 701T103 718Q131 718 152 700H288Q428 700 503 638T578 463Q578 351 505 288T294 225H195V0H61V594ZM291 341Q364 341 403 371T442
463Q442 523 403 553T291 584H195V341H291Z" />
<glyph unicode="Q" glyph-name="Q" horiz-adv-x="692" d="M657 219T605 129T455 7L589 -162H430L318 -9Q229 -3 165 43T68 168T35 350Q35 459 71 540T178 665T346 710Q444 710 514 666T620 540T657 350Q657 219 605 129ZM171 232T216 166T346 99Q431 99 476 165T521
350Q521 468 476 534T346 601Q261 601 216 535T171 350Q171 232 216 166Z" />
<glyph unicode="R" glyph-name="R" horiz-adv-x="613" d="M61 594Q61 607 58 613T46 627Q35 636 35 649Q35 656 36 660Q41 685 59 701T103 718Q131 718 152 700H288Q430 700 504 644T578 478Q578 388 529 335T386 267L562 0H410L241 256H195V0H61V594ZM291 371Q367
371 404 395T442 478Q442 537 405 560T291 584H195V371H291Z" />
<glyph unicode="S" glyph-name="S" horiz-adv-x="605" d="M232 -10T159 21T35 110L114 190Q158 141 207 120T321 99Q376 99 405 119T434 175Q434 201 423 218T378 254T278 296Q159 339 107 392T54 523Q54 612 123 661T304 710Q374 710 439 687T552 621L483 533Q437
571 399 586T304 601Q250 601 220 582T190 524Q190 498 203 480T249 444T347 401Q433 368 480 338T549 269T570 175Q570 86 503 38T318 -10Q232 -10 159 21Z" />
<glyph unicode="T" glyph-name="T" horiz-adv-x="604" d="M235 584H35V700H569V584H369V0H235V584Z" />
<glyph unicode="U" glyph-name="U" horiz-adv-x="644" d="M189 -10T115 62T40 262V700H174V256Q174 182 213 141T322 99Q392 99 431 140T470 256V700H604V262Q604 134 530 62T322 -10Q189 -10 115 62Z" />
<glyph unicode="V" glyph-name="V" horiz-adv-x="690" d="M265 14T265 41Q265 54 273 68L35 700H173L346 211L518 700H655L410 40Q401 15 382 3T339 -10Q321 -10 302 -2Q265 14 265 41Z" />
<glyph unicode="W" glyph-name="W" horiz-adv-x="843" d="M164 3T153 16T142 46Q142 52 146 66L149 74L35 700H170L240 243L361 671Q366 690 382 700T421 710Q458 710 478 697T499 663Q499 658 497 650L494 640L604 245L673 700H808L692 74L695 66Q699 52 699
46Q699 30 688 17T654 -3Q633 -9 616 -9Q591 -9 575 6T549 53L422 507L292 53Q283 21 267 6T225 -9Q208 -9 187 -3Q164 3 153 16Z" />
<glyph unicode="X" glyph-name="X" horiz-adv-x="702" d="M276 375L56 700H206L351 478L496 700H646L426 375L667 0H517L351 272L185 0H35L276 375Z" />
<glyph unicode="Y" glyph-name="Y" horiz-adv-x="664" d="M267 268L35 700H180L332 390L484 700H629L397 268V0H267V268Z" />
<glyph unicode="Z" glyph-name="Z" horiz-adv-x="632" d="M111 -12T103 -12Q81 -12 45 27Q35 38 35 48Q35 56 39 63T52 82L404 584H59V700H487L494 707Q505 720 527 720Q549 720 567 705Q596 680 596 659Q596 642 578 616L227 116H597V0H132L118 -8Q111 -12 103 -12Z" />
<glyph unicode="[" glyph-name="bracketleft" horiz-adv-x="264" d="M40 746H259V640H174V-28H259V-134H40V746Z" />
<glyph unicode="\" glyph-name="backslash" horiz-adv-x="480" d="M35 710H170L445 -12H310L35 710Z" />
<glyph unicode="]" glyph-name="bracketright" horiz-adv-x="264" d="M5 -28H90V640H5V746H224V-134H5V-28Z" />
<glyph unicode="^" glyph-name="asciicircum" horiz-adv-x="494" d="M189 696Q198 713 212 720T250 728Q277 728 294 715T312 681Q312 669 308 660L306 655L459 431H320L241 575L174 431H35L189 696Z" />
<glyph unicode="_" glyph-name="underscore" horiz-adv-x="592" d="M35 -46H557V-152H35V-46Z" />
<glyph unicode="`" glyph-name="grave" horiz-adv-x="303" d="M35 728H184L268 539H159L35 728Z" />
<glyph unicode="a" glyph-name="a" horiz-adv-x="586" d="M189 -10T140 19T63 103T35 234Q35 315 63 374T143 464T264 495Q345 495 399 434V485H526V136Q526 101 532 78T551 32L444 -10Q414 23 410 65H408Q380 29 340 10T251 -10Q189 -10 140 19ZM336 95T366 132T396
233V251Q396 309 367 349T282 390Q226 390 197 350T167 234Q167 166 195 131T278 95Q336 95 366 132Z" />
<glyph unicode="b" glyph-name="b" horiz-adv-x="590" d="M35 31Q48 54 54 77T60 136V734H192V437Q219 463 257 479T338 495Q437 495 496 429T555 243Q555 168 526 111T445 22T331 -10Q234 -10 176 65Q171 21 142 -11L35 31ZM365 95T394 133T423 243Q423 390 306
390Q250 390 220 350T190 251V233Q190 170 220 133T310 95Q365 95 394 133Z" />
<glyph unicode="c" glyph-name="c" horiz-adv-x="534" d="M177 -10T106 57T35 242Q35 361 105 428T298 495Q355 495 404 477T483 428L438 341Q380 388 304 388Q241 388 205 352T169 242Q169 169 205 133T307 97Q344 97 373 108T430 146L499 74Q466 35 414 13T303
-10Q177 -10 106 57Z" />
<glyph unicode="d" glyph-name="d" horiz-adv-x="590" d="M419 21T414 65Q356 -10 259 -10Q195 -10 144 19T64 103T35 234Q35 315 64 374T145 464T266 495Q309 495 340 480T398 437V734H530V136Q530 101 536 78T555 31L448 -11Q419 21 414 65ZM339 95T369 132T400
233V251Q400 310 371 350T284 390Q227 390 197 350T167 234Q167 166 196 131T280 95Q339 95 369 132Z" />
<glyph unicode="e" glyph-name="e" horiz-adv-x="560" d="M174 -10T105 57T35 239Q35 314 63 372T146 462T279 495Q355 495 411 464T496 378T525 256Q525 223 504 206T444 188H166Q166 147 201 122T294 97Q341 97 373 110T431 149L497 79Q464 37 412 14T294 -10Q174
-10 105 57ZM394 291Q394 335 362 362T279 390Q231 390 199 363T166 291H394Z" />
<glyph unicode="f" glyph-name="f" horiz-adv-x="429" d="M114 379H25L53 485H114V568Q114 642 163 689T298 736Q324 736 354 729T404 709L380 613Q367 619 347 624T310 629Q279 629 263 613T246 566V485H390L363 379H246V0H114V379Z" />
<glyph unicode="g" glyph-name="g" horiz-adv-x="590" d="M173 -218T87 -174L126 -79Q187 -111 263 -111Q338 -111 368 -74T398 31V58Q373 31 338 16T261 0Q159 0 97 64T35 248Q35 327 63 383T140 468T253 497Q349 497 414 422Q419 466 448 498L555 456Q542 433
536 410T530 351V43Q530 -85 462 -151T263 -218Q173 -218 87 -174ZM340 105T370 145T400 244V254Q400 317 370 354T280 392Q225 392 196 356T167 248Q167 174 196 140T284 105Q340 105 370 145Z" />
<glyph unicode="h" glyph-name="h" horiz-adv-x="554" d="M382 20T375 52T367 126V287Q367 388 283 388Q233 388 203 349T172 250V0H40V734H172V432Q201 461 238 478T317 495Q499 495 499 287V129Q499 74 519 34L399 -10Q382 20 375 52Z" />
<glyph unicode="i" glyph-name="i" horiz-adv-x="280" d="M101 540T76 564T50 625Q50 662 75 686T140 710Q179 710 204 686T230 625Q230 588 205 564T140 540Q101 540 76 564ZM74 485H206V0H74V485Z" />
<glyph unicode="j" glyph-name="j" horiz-adv-x="453" d="M274 540T249 564T223 625Q223 662 248 686T313 710Q352 710 377 686T403 625Q403 588 378 564T313 540Q274 540 249 564ZM143 -218T97 -202T25 -161L73 -73Q124 -111 179 -111Q214 -111 230 -92T247 -26V485H379V-18Q379
-117 331 -167T189 -218Q143 -218 97 -202Z" />
<glyph unicode="k" glyph-name="k" horiz-adv-x="512" d="M45 734H177V344L312 485H474L242 255L497 0H327L177 157V0H45V734Z" />
<glyph unicode="l" glyph-name="l" horiz-adv-x="222" d="M45 734H177V0H45V734Z" />
<glyph unicode="m" glyph-name="m" horiz-adv-x="801" d="M629 20T622 52T614 126V289Q614 340 597 364T546 388Q467 388 467 289V0H337V290Q337 343 322 365T272 388Q229 388 209 358T189 266V0H57V349Q57 379 53 401T35 450L145 495Q154 479 161 457T170 419Q191
456 226 475T301 495Q380 495 418 421Q450 460 487 477T575 495Q657 495 701 447T746 321V129Q746 74 766 34L646 -10Q629 20 622 52Z" />
<glyph unicode="n" glyph-name="n" d="M399 20T392 52T384 126V287Q384 388 300 388Q250 388 220 349T189 250V0H57V349Q57 379 53 401T35 450L152 495Q161 479 168 457T177 419Q206 453 248 474T339 495Q432 495 474 442T516 287V129Q516 74 536 34L416 -10Q399
20 392 52Z" />
<glyph unicode="o" glyph-name="o" horiz-adv-x="568" d="M209 -11T153 20T66 109T35 242Q35 317 65 374T152 463T284 495Q359 495 415 464T502 375T533 242Q533 167 503 110T416 21T284 -11Q209 -11 153 20ZM341 96T370 134T399 242Q399 311 370 349T284 388Q227
388 198 350T169 242Q169 173 198 135T284 96Q341 96 370 134Z" />
<glyph unicode="p" glyph-name="p" horiz-adv-x="590" d="M60 351Q60 387 54 410T35 456L142 498Q171 466 176 422Q241 497 337 497Q400 497 449 467T527 380T555 244Q555 165 527 108T447 22T329 -8Q287 -8 252 7T192 50V-219H60V351ZM423 97T423 244Q423 315
394 353T310 392Q251 392 221 355T190 254V236Q190 178 220 138T306 97Q423 97 423 244Z" />
<glyph unicode="q" glyph-name="q" horiz-adv-x="593" d="M398 -166T398 -88V50Q373 23 338 8T261 -8Q194 -8 143 21T64 108T35 244Q35 323 63 380T140 467T253 497Q349 497 414 422Q419 466 448 498L555 456Q542 433 536 410T530 351V-88Q530 -142 558 -186L442
-232Q398 -166 398 -88ZM340 97T370 137T400 236V254Q400 317 370 354T280 392Q225 392 196 354T167 244Q167 97 284 97Q340 97 370 137Z" />
<glyph unicode="r" glyph-name="r" horiz-adv-x="416" d="M57 349Q57 379 53 401T35 450L152 495Q161 479 168 457T177 419Q204 457 233 476T301 495Q331 495 353 487T401 460L352 369Q335 379 321 383T290 388Q238 388 214 356T189 259V0H57V349Z" />
<glyph unicode="s" glyph-name="s" horiz-adv-x="508" d="M207 -10T145 15T35 89L109 168Q143 132 186 113T278 94Q309 94 325 103T341 130Q341 143 335 152T306 171T239 195Q140 226 99 262T58 358Q58 423 110 459T256 495Q362 495 447 435L402 349Q360 372 326
381T255 391Q222 391 206 383T190 358Q190 345 198 337T228 319T292 297Q360 276 398 254T455 202T473 127Q473 65 421 28T278 -10Q207 -10 145 15Z" />
<glyph unicode="t" glyph-name="t" horiz-adv-x="399" d="M189 -9T152 30T114 142V379H25L53 485H116V586L244 645V485H374L348 379H246V139Q246 116 256 106T287 96Q312 96 332 106L363 11Q346 3 317 -3T260 -9Q189 -9 152 30Z" />
<glyph unicode="u" glyph-name="u" horiz-adv-x="556" d="M175 -10T132 15T65 88T40 198V485H172V198Q172 97 267 97Q317 97 342 130T367 219V485H499V136Q499 106 503 84T521 35L404 -10Q395 6 388 28T379 66Q329 -10 231 -10Q175 -10 132 15Z" />
<glyph unicode="v" glyph-name="v" horiz-adv-x="573" d="M246 -10T229 3T211 36Q211 46 213 51L215 57L35 485H173L287 174L400 485H538L347 27Q339 8 322 -1T273 -10Q246 -10 229 3Z" />
<glyph unicode="w" glyph-name="w" horiz-adv-x="722" d="M185 -10T170 3T154 40Q154 49 155 54L156 60L35 485H171L233 198L310 464Q315 480 329 487T370 495Q405 495 419 484T434 451Q434 441 433 436L429 414L490 198L551 485H687L566 60L567 54Q568 49 568
40Q568 16 553 3T506 -10Q474 -10 458 1T436 34L361 298L286 34Q280 12 264 1T216 -10Q185 -10 170 3Z" />
<glyph unicode="x" glyph-name="x" horiz-adv-x="552" d="M189 251L35 485H183L276 331L369 485H517L363 251L517 0H367L276 165L185 0H35L189 251Z" />
<glyph unicode="y" glyph-name="y" horiz-adv-x="589" d="M69 -123Q137 -100 176 -63T232 43L35 485H188L300 187L402 485H554L357 -2Q319 -95 263 -146T107 -229L69 -123Z" />
<glyph unicode="z" glyph-name="z" horiz-adv-x="545" d="M113 -10T102 -10Q87 -10 71 1T41 36Q35 48 35 58Q35 77 55 90Q63 95 70 103L326 379H60V485H395Q416 485 424 490Q431 495 443 495Q456 495 469 489T494 468Q510 447 510 432Q510 415 494 398L223 106H507V0H151Q131
0 120 -6Q113 -10 102 -10Z" />
<glyph unicode="{" glyph-name="braceleft" horiz-adv-x="367" d="M173 -134T140 -104T107 -23V215Q107 253 75 253H35V359H75Q107 359 107 397V635Q107 686 140 716T227 746H332V640H262Q252 640 247 634T241 618V406Q241 368 232 346T196 306Q223 289 232 267T241
206V-6Q241 -16 246 -22T262 -28H332V-134H227Q173 -134 140 -104Z" />
<glyph unicode="|" glyph-name="bar" horiz-adv-x="214" d="M40 800H174V-140H40V800Z" />
<glyph unicode="}" glyph-name="braceright" horiz-adv-x="367" d="M35 -28H105Q115 -28 120 -22T126 -6V206Q126 244 135 266T171 306Q144 323 135 345T126 406V618Q126 628 121 634T105 640H35V746H140Q194 746 227 716T260 635V397Q260 359 292 359H332V253H292Q260
253 260 215V-23Q260 -74 227 -104T140 -134H35V-28Z" />
<glyph unicode="~" glyph-name="asciitilde" horiz-adv-x="603" d="M35 241Q91 337 193 337Q219 337 244 330T303 309Q342 295 361 290T402 284Q437 284 457 297T494 339L568 273Q544 223 505 198T415 173Q390 173 365 180T303 201Q263 215 243 220T202 226Q148
226 113 167L35 241Z" />
<glyph unicode="&#xa0;" glyph-name="uni00A0" horiz-adv-x="258" />
<glyph unicode="&#xa1;" glyph-name="exclamdown" horiz-adv-x="260" d="M92 302T69 324T45 383Q45 420 68 442T130 464Q168 464 191 442T215 383Q215 346 192 324T130 302Q92 302 69 324ZM72 253H188L196 -236H61L72 253Z" />
<glyph unicode="&#xa2;" glyph-name="cent" horiz-adv-x="534" d="M469 39T424 17T327 -9V-98H275V-9Q162 -1 99 64T35 242Q35 355 98 421T275 494V588H327V494Q375 490 416 472T483 428L438 341Q388 381 327 387V98Q357 100 381 111T430 146L499 74Q469 39 424
17ZM169 178T196 143T275 99V386Q225 378 197 343T169 242Q169 178 196 143Z" />
<glyph unicode="&#xa3;" glyph-name="sterling" horiz-adv-x="598" d="M45 93Q84 101 117 130T171 199T192 281Q192 292 191 298H35L61 404H157Q141 431 133 456T125 510Q125 565 156 611T241 683T362 710Q424 710 477 687T563 623L515 534Q455 601 362 601Q313
601 287 576T261 510Q261 480 269 455T296 404H471L443 298H326Q326 189 240 106H556V0H45V93Z" />
<glyph unicode="&#xa4;" glyph-name="currency" horiz-adv-x="602" d="M21 133L104 221Q61 269 61 337Q61 400 97 444L15 531L99 612L187 518Q243 543 301 543Q359 543 415 518L503 612L587 531L505 444Q541 400 541 337Q541 269 498 221L581 133L497 52L404 151Q351
130 301 130Q251 130 198 151L105 52L21 133ZM355 236T385 262T415 337Q415 385 385 411T301 437Q247 437 217 411T187 337Q187 288 217 262T301 236Q355 236 385 262Z" />
<glyph unicode="&#xa5;" glyph-name="yen" horiz-adv-x="664" d="M398 269H538V223H397V157H538V111H397V0H267V111H127V157H267V223H127V269H266L35 700H180L332 390L484 700H629L398 269Z" />
<glyph unicode="&#xa6;" glyph-name="brokenbar" horiz-adv-x="214" d="M40 800H174V406H40V800ZM40 254H174V-140H40V254Z" />
<glyph unicode="&#xa7;" glyph-name="section" horiz-adv-x="508" d="M207 -58T145 -33T35 41L109 120Q143 84 186 65T278 46Q308 46 324 60T341 92Q341 113 322 130T239 167Q142 198 100 240T58 341Q58 407 115 458Q85 480 72 508T58 575Q58 641 111 681T256
722Q362 722 447 662L402 576Q360 599 326 608T255 618Q224 618 207 605T190 575Q190 557 198 546T227 526T292 504Q360 483 398 461T455 409T473 334Q473 301 458 269T416 211Q446 188 459 159T473 89Q473 48 450 15T383 -38T278 -58Q207 -58 145 -33ZM341 293T341
325Q341 341 329 358T287 388Q259 400 223 408Q190 388 190 347Q190 308 238 288Q268 275 317 260Q341 293 341 325Z" />
<glyph unicode="&#xa8;" glyph-name="dieresis" horiz-adv-x="433" d="M78 549T57 570T35 623Q35 655 56 676T111 697Q144 697 164 676T185 623Q185 592 165 571T111 549Q78 549 57 570ZM291 549T270 570T248 623Q248 655 269 676T324 697Q357 697 377 676T398
623Q398 592 378 571T324 549Q291 549 270 570Z" />
<glyph unicode="&#xa9;" glyph-name="copyright" horiz-adv-x="846" d="M315 -11T227 34T87 161T35 349Q35 455 86 537T227 665T423 710Q530 710 619 665T759 538T811 349Q811 243 760 161T620 34T423 -11Q315 -11 227 34ZM496 98T556 126T652 210T688 349Q688
431 652 488T556 573T423 601Q351 601 291 573T194 488T158 349Q158 267 194 211T290 126T423 98Q496 98 556 126ZM365 138T314 163T234 236T204 348Q204 413 232 460T312 533T427 559Q477 559 521 541T599 489L547 412Q495 457 431 457Q386 457 359 429T332 348Q332
297 361 269T440 240Q470 240 493 250T541 285L609 216Q531 138 429 138Q365 138 314 163Z" />
<glyph unicode="&#xaa;" glyph-name="ordfeminine" horiz-adv-x="426" d="M116 384T76 426T35 545Q35 624 79 671T191 718Q244 718 279 678V712H375V479Q375 456 378 441T391 411L309 384Q290 405 286 432H285Q267 409 241 397T183 384Q116 384 76 426ZM278 459T278
545V556Q278 594 260 618T206 642Q171 642 153 618T134 545Q134 459 203 459Q278 459 278 545Z" />
<glyph unicode="&#xab;" glyph-name="guillemotleft" horiz-adv-x="519" d="M43 233Q35 245 35 260Q35 275 43 287L170 477H299L160 260L299 43H170L43 233ZM228 233Q220 245 220 260Q220 275 228 287L355 477H484L345 260L484 43H355L228 233Z" />
<glyph unicode="&#xac;" glyph-name="logicalnot" horiz-adv-x="482" d="M313 232H35V338H447V99H313V232Z" />
<glyph unicode="&#xad;" glyph-name="uni00AD" horiz-adv-x="522" d="M35 338H487V232H35V338Z" />
<glyph unicode="&#xae;" glyph-name="registered" horiz-adv-x="846" d="M315 -11T227 34T87 161T35 349Q35 455 86 537T227 665T423 710Q530 710 619 665T759 538T811 349Q811 243 760 161T620 34T423 -11Q315 -11 227 34ZM496 98T556 126T652 210T688 349Q688
431 652 488T556 573T423 601Q351 601 291 573T194 488T158 349Q158 267 194 211T290 126T423 98Q496 98 556 126ZM270 464Q270 472 266 478T261 485Q252 494 252 504Q252 510 255 519Q263 538 277 549T312 560Q333 560 345 544H450Q523 544 564 509T606 408Q606
363 578 333T500 290L589 160H466L395 274H379V160H270V464ZM434 358Q496 358 496 408Q496 460 437 460H379V358H434Z" />
<glyph unicode="&#xaf;" glyph-name="overscore" horiz-adv-x="422" d="M35 640H387V539H35V640Z" />
<glyph unicode="&#xb0;" glyph-name="degree" horiz-adv-x="338" d="M103 467T59 505T15 604Q15 664 59 703T169 742Q235 742 279 703T323 604Q323 544 279 506T169 467Q103 467 59 505ZM190 556T204 569T218 604Q218 626 204 640T169 654Q148 654 134 640T120
604Q120 583 134 570T169 556Q190 556 204 569Z" />
<glyph unicode="&#xb1;" glyph-name="plusminus" horiz-adv-x="560" d="M510 388V282H347V144H213V282H50V388H213V526H347V388H510ZM50 106H510V0H50V106Z" />
<glyph unicode="&#xb2;" glyph-name="uni00B2" horiz-adv-x="509" d="M60 414T48 423T35 459Q35 496 44 508T75 522Q96 561 130 587T216 640Q266 667 289 687T312 738Q312 810 250 810Q221 810 204 802T176 771T162 703L42 715Q42 772 67 816T139 886T249 911Q342
911 391 864T440 738Q440 701 423 674T382 630T318 590Q284 571 264 557T231 524H343L364 573L474 535L423 414H91Q60 414 48 423Z" />
<glyph unicode="&#xb3;" glyph-name="uni00B3" horiz-adv-x="527" d="M180 403T120 441T35 557L151 594Q163 545 193 525T269 504Q321 504 342 523T364 579Q364 609 346 625T297 641Q293 641 282 639L274 629Q259 609 242 609Q224 609 192 630Q182 637 177 642T172
656Q172 669 186 690L261 801H184L164 741L69 803L102 900H413Q439 900 451 893T464 868Q464 859 459 841Q451 816 439 809T402 801H388L338 731Q350 735 374 735Q404 735 431 717T475 663T492 579Q492 499 433 451T269 403Q180 403 120 441Z" />
<glyph unicode="&#xb4;" glyph-name="acute" horiz-adv-x="303" d="M119 728H268L144 539H35L119 728Z" />
<glyph unicode="&#xb6;" glyph-name="paragraph" horiz-adv-x="684" d="M276 274Q205 274 151 299T66 372T35 483Q35 584 102 642T283 700H649V594H596V-180H462V594H410V-180H276V274Z" />
<glyph unicode="&#xb7;" glyph-name="middot" horiz-adv-x="224" d="M79 266T57 287T35 340Q35 371 57 392T112 414Q145 414 167 393T189 340Q189 309 167 288T112 266Q79 266 57 287Z" />
<glyph unicode="&#xb8;" glyph-name="cedilla" horiz-adv-x="315" d="M91 -227T35 -184L69 -122Q106 -148 139 -148Q174 -148 174 -119Q174 -90 139 -90Q129 -90 116 -93L92 -67L137 6H233L203 -41Q280 -57 280 -129Q280 -171 247 -199T157 -227Q91 -227 35 -184Z" />
<glyph unicode="&#xb9;" glyph-name="uni00B9" horiz-adv-x="318" d="M141 719L95 679L25 760L179 888Q208 913 229 913Q250 913 268 888Q283 866 283 854Q283 845 274 836L267 829L268 412H141V719Z" />
<glyph unicode="&#xba;" glyph-name="ordmasculine" horiz-adv-x="411" d="M130 384T83 430T35 551Q35 626 82 672T205 718Q281 718 328 672T376 551Q376 476 329 430T205 384Q130 384 83 430ZM242 460T259 483T276 551Q276 596 259 619T205 642Q168 642 151 619T134
551Q134 506 151 483T205 460Q242 460 259 483Z" />
<glyph unicode="&#xbb;" glyph-name="guillemotright" horiz-adv-x="519" d="M174 260L35 477H164L291 287Q299 275 299 260Q299 245 291 233L164 43H35L174 260ZM359 260L220 477H349L476 287Q484 275 484 260Q484 245 476 233L349 43H220L359 260Z" />
<glyph unicode="&#xbc;" glyph-name="onequarter" horiz-adv-x="917" d="M151 556L105 516L35 597L189 725Q218 750 239 750Q260 750 278 725Q293 703 293 691Q293 682 284 673L277 666L278 249H151V556ZM540 710H677L332 -10H195L540 710ZM696 90H503Q478 90
463 103T447 136Q447 156 463 173L726 471Q748 496 774 496Q791 496 807 484Q838 460 838 440Q838 428 828 415L822 407V189H882V90H822V0H696V90ZM703 189V292L610 189H703Z" />
<glyph unicode="&#xbd;" glyph-name="onehalf" horiz-adv-x="1002" d="M151 556L105 516L35 597L189 725Q218 750 239 750Q260 750 278 725Q293 703 293 691Q293 682 284 673L277 666L278 249H151V556ZM540 710H677L332 -10H195L540 710ZM553 -1T541 8T528 44Q528
81 537 93T568 107Q589 146 623 172T709 225Q759 252 782 272T805 323Q805 395 743 395Q714 395 697 387T669 356T655 288L535 300Q535 357 560 401T632 471T742 496Q835 496 884 449T933 323Q933 286 916 259T875 215T811 175Q777 156 757 142T724 109H836L857
158L967 120L916 -1H584Q553 -1 541 8Z" />
<glyph unicode="&#xbe;" glyph-name="threequarters" horiz-adv-x="1077" d="M700 710H837L492 -10H355L700 710ZM180 211T120 249T35 365L151 402Q163 353 193 333T269 312Q321 312 342 331T364 387Q364 417 346 433T297 449Q293 449 282 447L274 437Q259 417
242 417Q224 417 192 438Q182 445 177 450T172 464Q172 477 186 498L261 609H184L164 549L69 611L102 708H413Q439 708 451 701T464 676Q464 667 459 649Q451 624 439 617T402 609H388L338 539Q350 543 374 543Q404 543 431 525T475 471T492 387Q492 307 433 259T269
211Q180 211 120 249ZM856 90H663Q638 90 623 103T607 136Q607 156 623 173L886 471Q908 496 934 496Q951 496 967 484Q998 460 998 440Q998 428 988 415L982 407V189H1042V90H982V0H856V90ZM863 189V292L770 189H863Z" />
<glyph unicode="&#xbf;" glyph-name="questiondown" horiz-adv-x="534" d="M233 298T210 320T186 379Q186 416 209 438T271 460Q309 460 332 438T356 379Q356 342 333 320T271 298Q233 298 210 320ZM188 -250T138 -225T62 -155T35 -54Q35 -18 48 10T79 57T129
101Q168 133 186 156T205 214V249H339V214Q339 178 326 150T294 102T244 55Q207 23 189 0T171 -54Q171 -96 192 -118T259 -141Q306 -141 337 -116T390 -36L499 -87Q473 -164 407 -207T256 -250Q188 -250 138 -225Z" />
<glyph unicode="&#xc0;" glyph-name="Agrave" horiz-adv-x="714" d="M284 660Q305 718 362 718Q398 718 419 703T440 662Q440 656 436 644L679 0H539L473 185H241L175 0H35L284 660ZM444 291L358 532L272 291H444ZM184 958H333L417 769H308L184 958Z" />
<glyph unicode="&#xc1;" glyph-name="Aacute" horiz-adv-x="714" d="M284 660Q305 718 362 718Q398 718 419 703T440 662Q440 656 436 644L679 0H539L473 185H241L175 0H35L284 660ZM444 291L358 532L272 291H444ZM389 958H538L414 769H305L389 958Z" />
<glyph unicode="&#xc2;" glyph-name="Acircumflex" horiz-adv-x="714" d="M284 660Q305 718 362 718Q398 718 419 703T440 662Q440 656 436 644L679 0H539L473 185H241L175 0H35L284 660ZM444 291L358 532L272 291H444ZM305 928Q321 947 334 954T369 962Q398 962
413 950T429 922Q429 919 427 913L425 907L556 769H420L360 850L305 769H172L305 928Z" />
<glyph unicode="&#xc3;" glyph-name="Atilde" horiz-adv-x="714" d="M284 660Q305 718 362 718Q398 718 419 703T440 662Q440 656 436 644L679 0H539L473 185H241L175 0H35L284 660ZM444 291L358 532L272 291H444ZM182 812Q191 856 221 884T289 913Q315 913 335
905T380 882Q391 875 402 870T423 865Q442 865 452 875T466 911L533 879Q533 830 508 802T441 773Q418 773 398 780T353 801Q336 810 325 814T304 819Q287 819 274 808T257 773L182 812Z" />
<glyph unicode="&#xc4;" glyph-name="Adieresis" horiz-adv-x="714" d="M284 660Q305 718 362 718Q398 718 419 703T440 662Q440 656 436 644L679 0H539L473 185H241L175 0H35L284 660ZM444 291L358 532L272 291H444ZM217 779T195 800T173 853Q173 885 195 906T251
927Q284 927 305 906T327 853Q327 822 306 801T251 779Q217 779 195 800ZM443 779T421 800T399 853Q399 885 421 906T477 927Q510 927 531 906T553 853Q553 822 532 801T477 779Q443 779 421 800Z" />
<glyph unicode="&#xc5;" glyph-name="Aring" horiz-adv-x="714" d="M284 660Q305 718 362 718Q398 718 419 703T440 662Q440 656 436 644L679 0H539L473 185H241L175 0H35L284 660ZM444 291L358 532L272 291H444ZM312 744T275 772T238 853Q238 905 275 934T362
963Q412 963 449 934T486 853Q486 801 449 773T362 744Q312 744 275 772ZM379 815T391 825T403 853Q403 872 392 882T362 893Q344 893 333 883T321 853Q321 835 333 825T362 815Q379 815 391 825Z" />
<glyph unicode="&#xc6;" glyph-name="AE" horiz-adv-x="836" d="M298 700H792V584H502V422H708V312H502V116H801V0H370V185H241L175 0H35L298 700ZM370 291V562L272 291H370Z" />
<glyph unicode="&#xc7;" glyph-name="Ccedilla" horiz-adv-x="654" d="M583 53T527 25T406 -9L385 -41Q462 -57 462 -129Q462 -171 429 -199T339 -227Q273 -227 217 -184L251 -122Q288 -148 321 -148Q356 -148 356 -119Q356 -90 321 -90Q312 -90 298 -93L274 -67L312
-6Q179 13 107 105T35 351Q35 521 122 615T368 710Q440 710 500 685T597 616L545 526Q509 564 470 582T368 601Q273 601 222 536T171 351Q171 232 225 166T378 99Q430 99 469 116T541 171L619 97Q583 53 527 25Z" />
<glyph unicode="&#xc8;" glyph-name="Egrave" horiz-adv-x="553" d="M65 576Q65 597 60 608T45 628Q41 632 38 636T35 646Q35 649 37 655Q45 678 63 698T102 718Q124 718 140 700H509V584H199V422H425V312H199V116H518V0H65V576ZM111 958H260L344 769H235L111 958Z" />
<glyph unicode="&#xc9;" glyph-name="Eacute" horiz-adv-x="553" d="M65 576Q65 597 60 608T45 628Q41 632 38 636T35 646Q35 649 37 655Q45 678 63 698T102 718Q124 718 140 700H509V584H199V422H425V312H199V116H518V0H65V576ZM316 958H465L341 769H232L316 958Z" />
<glyph unicode="&#xca;" glyph-name="Ecircumflex" horiz-adv-x="553" d="M65 576Q65 597 60 608T45 628Q41 632 38 636T35 646Q35 649 37 655Q45 678 63 698T102 718Q124 718 140 700H509V584H199V422H425V312H199V116H518V0H65V576ZM232 928Q248 947 261 954T296
962Q325 962 340 950T356 922Q356 919 354 913L352 907L483 769H347L287 850L232 769H99L232 928Z" />
<glyph unicode="&#xcb;" glyph-name="Edieresis" horiz-adv-x="553" d="M65 576Q65 597 60 608T45 628Q41 632 38 636T35 646Q35 649 37 655Q45 678 63 698T102 718Q124 718 140 700H509V584H199V422H425V312H199V116H518V0H65V576ZM144 779T122 800T100 853Q100
885 122 906T178 927Q211 927 232 906T254 853Q254 822 233 801T178 779Q144 779 122 800ZM370 779T348 800T326 853Q326 885 348 906T404 927Q437 927 458 906T480 853Q480 822 459 801T404 779Q370 779 348 800Z" />
<glyph unicode="&#xcc;" glyph-name="Igrave" horiz-adv-x="304" d="M85 700H219V0H85V700ZM-26 958H123L207 769H98L-26 958Z" />
<glyph unicode="&#xcd;" glyph-name="Iacute" horiz-adv-x="304" d="M85 700H219V0H85V700ZM179 958H328L204 769H95L179 958Z" />
<glyph unicode="&#xce;" glyph-name="Icircumflex" horiz-adv-x="304" d="M85 700H219V0H85V700ZM95 928Q111 947 124 954T159 962Q188 962 203 950T219 922Q219 919 217 913L215 907L346 769H210L150 850L95 769H-38L95 928Z" />
<glyph unicode="&#xcf;" glyph-name="Idieresis" horiz-adv-x="304" d="M85 700H219V0H85V700ZM7 779T-15 800T-37 853Q-37 885 -15 906T41 927Q74 927 95 906T117 853Q117 822 96 801T41 779Q7 779 -15 800ZM233 779T211 800T189 853Q189 885 211 906T267 927Q300
927 321 906T343 853Q343 822 322 801T267 779Q233 779 211 800Z" />
<glyph unicode="&#xd0;" glyph-name="Eth" horiz-adv-x="683" d="M406 700T485 657T606 535T648 352Q648 187 558 94T303 0H85V301H35V397H85V576Q85 597 80 608T65 628Q61 632 58 636T55 646Q55 649 57 655Q65 678 83 698T122 718Q143 718 160 700H298Q406 700
485 657ZM409 116T460 174T512 352Q512 465 457 524T295 584H219V397H371V301H219V116H303Q409 116 460 174Z" />
<glyph unicode="&#xd1;" glyph-name="Ntilde" horiz-adv-x="628" d="M58 597Q58 608 55 614T45 628Q35 640 35 650Q35 659 37 664Q45 690 65 704T111 718Q150 718 169 688L449 240V700H583V0H470L192 443V0H58V597ZM149 812Q158 856 188 884T256 913Q282 913 302
905T347 882Q358 875 369 870T390 865Q409 865 419 875T433 911L500 879Q500 830 475 802T408 773Q385 773 365 780T320 801Q303 810 292 814T271 819Q254 819 241 808T224 773L149 812Z" />
<glyph unicode="&#xd2;" glyph-name="Ograve" horiz-adv-x="692" d="M248 -10T178 34T72 160T35 350Q35 459 71 540T178 665T346 710Q444 710 514 666T620 540T657 350Q657 241 621 160T514 35T346 -10Q248 -10 178 34ZM431 99T476 165T521 350Q521 468 476 534T346
601Q261 601 216 535T171 350Q171 232 216 166T346 99Q431 99 476 165ZM168 958H317L401 769H292L168 958Z" />
<glyph unicode="&#xd3;" glyph-name="Oacute" horiz-adv-x="692" d="M248 -10T178 34T72 160T35 350Q35 459 71 540T178 665T346 710Q444 710 514 666T620 540T657 350Q657 241 621 160T514 35T346 -10Q248 -10 178 34ZM431 99T476 165T521 350Q521 468 476 534T346
601Q261 601 216 535T171 350Q171 232 216 166T346 99Q431 99 476 165ZM373 958H522L398 769H289L373 958Z" />
<glyph unicode="&#xd4;" glyph-name="Ocircumflex" horiz-adv-x="692" d="M248 -10T178 34T72 160T35 350Q35 459 71 540T178 665T346 710Q444 710 514 666T620 540T657 350Q657 241 621 160T514 35T346 -10Q248 -10 178 34ZM431 99T476 165T521 350Q521 468 476
534T346 601Q261 601 216 535T171 350Q171 232 216 166T346 99Q431 99 476 165ZM289 928Q305 947 318 954T353 962Q382 962 397 950T413 922Q413 919 411 913L409 907L540 769H404L344 850L289 769H156L289 928Z" />
<glyph unicode="&#xd5;" glyph-name="Otilde" horiz-adv-x="692" d="M248 -10T178 34T72 160T35 350Q35 459 71 540T178 665T346 710Q444 710 514 666T620 540T657 350Q657 241 621 160T514 35T346 -10Q248 -10 178 34ZM431 99T476 165T521 350Q521 468 476 534T346
601Q261 601 216 535T171 350Q171 232 216 166T346 99Q431 99 476 165ZM166 812Q175 856 205 884T273 913Q299 913 319 905T364 882Q375 875 386 870T407 865Q426 865 436 875T450 911L517 879Q517 830 492 802T425 773Q402 773 382 780T337 801Q320 810 309 814T288
819Q271 819 258 808T241 773L166 812Z" />
<glyph unicode="&#xd6;" glyph-name="Odieresis" horiz-adv-x="692" d="M248 -10T178 34T72 160T35 350Q35 459 71 540T178 665T346 710Q444 710 514 666T620 540T657 350Q657 241 621 160T514 35T346 -10Q248 -10 178 34ZM431 99T476 165T521 350Q521 468 476
534T346 601Q261 601 216 535T171 350Q171 232 216 166T346 99Q431 99 476 165ZM201 779T179 800T157 853Q157 885 179 906T235 927Q268 927 289 906T311 853Q311 822 290 801T235 779Q201 779 179 800ZM427 779T405 800T383 853Q383 885 405 906T461 927Q494 927
515 906T537 853Q537 822 516 801T461 779Q427 779 405 800Z" />
<glyph unicode="&#xd7;" glyph-name="multiply" horiz-adv-x="560" d="M55 141L198 280L55 423L138 504L281 362L423 504L506 423L363 280L506 137L423 56L281 198L138 60L55 141Z" />
<glyph unicode="&#xd8;" glyph-name="Oslash" horiz-adv-x="692" d="M591 609T624 531T657 350Q657 241 621 160T514 35T346 -10Q252 -10 184 31L127 -71L82 -46L142 62Q90 109 63 182T35 350Q35 459 71 540T178 665T346 710Q424 710 485 681L535 771L580 746L529
655Q591 609 624 531ZM171 243T207 180L429 580Q393 601 346 601Q261 601 216 535T171 350Q171 243 207 180ZM431 99T476 165T521 350Q521 478 468 545L242 136Q284 99 346 99Q431 99 476 165Z" />
<glyph unicode="&#xd9;" glyph-name="Ugrave" horiz-adv-x="644" d="M189 -10T115 62T40 262V700H174V256Q174 182 213 141T322 99Q392 99 431 140T470 256V700H604V262Q604 134 530 62T322 -10Q189 -10 115 62ZM144 958H293L377 769H268L144 958Z" />
<glyph unicode="&#xda;" glyph-name="Uacute" horiz-adv-x="644" d="M189 -10T115 62T40 262V700H174V256Q174 182 213 141T322 99Q392 99 431 140T470 256V700H604V262Q604 134 530 62T322 -10Q189 -10 115 62ZM349 958H498L374 769H265L349 958Z" />
<glyph unicode="&#xdb;" glyph-name="Ucircumflex" horiz-adv-x="644" d="M189 -10T115 62T40 262V700H174V256Q174 182 213 141T322 99Q392 99 431 140T470 256V700H604V262Q604 134 530 62T322 -10Q189 -10 115 62ZM265 928Q281 947 294 954T329 962Q358 962
373 950T389 922Q389 919 387 913L385 907L516 769H380L320 850L265 769H132L265 928Z" />
<glyph unicode="&#xdc;" glyph-name="Udieresis" horiz-adv-x="644" d="M189 -10T115 62T40 262V700H174V256Q174 182 213 141T322 99Q392 99 431 140T470 256V700H604V262Q604 134 530 62T322 -10Q189 -10 115 62ZM177 779T155 800T133 853Q133 885 155 906T211
927Q244 927 265 906T287 853Q287 822 266 801T211 779Q177 779 155 800ZM403 779T381 800T359 853Q359 885 381 906T437 927Q470 927 491 906T513 853Q513 822 492 801T437 779Q403 779 381 800Z" />
<glyph unicode="&#xdd;" glyph-name="Yacute" horiz-adv-x="664" d="M267 268L35 700H180L332 390L484 700H629L397 268V0H267V268ZM359 958H508L384 769H275L359 958Z" />
<glyph unicode="&#xde;" glyph-name="Thorn" horiz-adv-x="592" d="M50 700H184V573H283Q412 573 484 514T557 350Q557 245 485 186T283 127H184V0H50V700ZM280 243Q347 243 384 271T421 350Q421 400 384 428T280 457H184V243H280Z" />
<glyph unicode="&#xdf;" glyph-name="germandbls" horiz-adv-x="615" d="M40 487Q40 551 72 602T162 681T293 710Q365 710 421 687T510 619T542 516Q542 465 514 428T434 373V371Q506 354 543 312T580 205Q580 108 522 49T358 -10Q320 -10 280 -3T208 17L243 116Q291
95 347 95Q397 95 420 125T444 206Q444 266 407 290T285 315H242V419H285Q348 419 377 443T406 516Q406 605 293 605Q234 605 204 576T173 489V-250H40V487Z" />
<glyph unicode="&#xe0;" glyph-name="agrave" horiz-adv-x="586" d="M189 -10T140 19T63 103T35 234Q35 315 63 374T143 464T264 495Q345 495 399 434V485H526V136Q526 101 532 78T551 32L444 -10Q414 23 410 65H408Q380 29 340 10T251 -10Q189 -10 140 19ZM336
95T366 132T396 233V251Q396 309 367 349T282 390Q226 390 197 350T167 234Q167 166 195 131T278 95Q336 95 366 132ZM101 743H250L334 554H225L101 743Z" />
<glyph unicode="&#xe1;" glyph-name="aacute" horiz-adv-x="586" d="M189 -10T140 19T63 103T35 234Q35 315 63 374T143 464T264 495Q345 495 399 434V485H526V136Q526 101 532 78T551 32L444 -10Q414 23 410 65H408Q380 29 340 10T251 -10Q189 -10 140 19ZM336
95T366 132T396 233V251Q396 309 367 349T282 390Q226 390 197 350T167 234Q167 166 195 131T278 95Q336 95 366 132ZM306 743H455L331 554H222L306 743Z" />
<glyph unicode="&#xe2;" glyph-name="acircumflex" horiz-adv-x="586" d="M189 -10T140 19T63 103T35 234Q35 315 63 374T143 464T264 495Q345 495 399 434V485H526V136Q526 101 532 78T551 32L444 -10Q414 23 410 65H408Q380 29 340 10T251 -10Q189 -10 140 19ZM336
95T366 132T396 233V251Q396 309 367 349T282 390Q226 390 197 350T167 234Q167 166 195 131T278 95Q336 95 366 132ZM222 713Q238 732 251 739T286 747Q315 747 330 735T346 707Q346 704 344 698L342 692L473 554H337L277 635L222 554H89L222 713Z" />
<glyph unicode="&#xe3;" glyph-name="atilde" horiz-adv-x="586" d="M189 -10T140 19T63 103T35 234Q35 315 63 374T143 464T264 495Q345 495 399 434V485H526V136Q526 101 532 78T551 32L444 -10Q414 23 410 65H408Q380 29 340 10T251 -10Q189 -10 140 19ZM336
95T366 132T396 233V251Q396 309 367 349T282 390Q226 390 197 350T167 234Q167 166 195 131T278 95Q336 95 366 132ZM99 597Q108 641 138 669T206 698Q232 698 252 690T297 667Q308 660 319 655T340 650Q359 650 369 660T383 696L450 664Q450 615 425 587T358
558Q335 558 315 565T270 586Q253 595 242 599T221 604Q204 604 191 593T174 558L99 597Z" />
<glyph unicode="&#xe4;" glyph-name="adieresis" horiz-adv-x="586" d="M189 -10T140 19T63 103T35 234Q35 315 63 374T143 464T264 495Q345 495 399 434V485H526V136Q526 101 532 78T551 32L444 -10Q414 23 410 65H408Q380 29 340 10T251 -10Q189 -10 140 19ZM336
95T366 132T396 233V251Q396 309 367 349T282 390Q226 390 197 350T167 234Q167 166 195 131T278 95Q336 95 366 132ZM134 564T112 585T90 638Q90 670 112 691T168 712Q201 712 222 691T244 638Q244 607 223 586T168 564Q134 564 112 585ZM360 564T338 585T316
638Q316 670 338 691T394 712Q427 712 448 691T470 638Q470 607 449 586T394 564Q360 564 338 585Z" />
<glyph unicode="&#xe5;" glyph-name="aring" horiz-adv-x="586" d="M189 -10T140 19T63 103T35 234Q35 315 63 374T143 464T264 495Q345 495 399 434V485H526V136Q526 101 532 78T551 32L444 -10Q414 23 410 65H408Q380 29 340 10T251 -10Q189 -10 140 19ZM336
95T366 132T396 233V251Q396 309 367 349T282 390Q226 390 197 350T167 234Q167 166 195 131T278 95Q336 95 366 132ZM229 529T192 557T155 638Q155 690 192 719T279 748Q329 748 366 719T403 638Q403 586 366 558T279 529Q229 529 192 557ZM296 600T308 610T320
638Q320 657 309 667T279 678Q261 678 250 668T238 638Q238 620 250 610T279 600Q296 600 308 610Z" />
<glyph unicode="&#xe6;" glyph-name="ae" horiz-adv-x="909" d="M144 -10T90 33T35 150Q35 227 91 268T244 309H372V314Q372 344 342 367T266 390Q221 390 187 376T115 332L49 405Q89 446 147 470T269 495Q324 495 369 473T440 414H441Q470 450 520 472T628 495Q748
495 811 431T874 258Q874 225 854 211T793 196H506V188Q506 151 542 124T637 97Q683 97 717 111T782 156L848 81Q762 -10 637 -10Q569 -10 515 19T438 88H437Q406 46 349 18T229 -10Q144 -10 90 33ZM741 297Q741 339 710 364T625 390Q592 390 565 378T521 345T505
303V297H741ZM306 97T339 123T373 187V208H240Q167 208 167 153Q167 97 247 97Q306 97 339 123Z" />
<glyph unicode="&#xe7;" glyph-name="ccedilla" horiz-adv-x="534" d="M470 40T426 18T332 -9L311 -41Q388 -57 388 -129Q388 -171 355 -199T265 -227Q199 -227 143 -184L177 -122Q214 -148 247 -148Q282 -148 282 -119Q282 -90 247 -90Q237 -90 224 -93L200 -67L238
-5Q141 12 88 76T35 242Q35 361 105 428T298 495Q355 495 404 477T483 428L438 341Q380 388 304 388Q241 388 205 352T169 242Q169 169 205 133T307 97Q344 97 373 108T430 146L499 74Q470 40 426 18Z" />
<glyph unicode="&#xe8;" glyph-name="egrave" horiz-adv-x="560" d="M174 -10T105 57T35 239Q35 314 63 372T146 462T279 495Q355 495 411 464T496 378T525 256Q525 223 504 206T444 188H166Q166 147 201 122T294 97Q341 97 373 110T431 149L497 79Q464 37 412
14T294 -10Q174 -10 105 57ZM394 291Q394 335 362 362T279 390Q231 390 199 363T166 291H394ZM111 743H260L344 554H235L111 743Z" />
<glyph unicode="&#xe9;" glyph-name="eacute" horiz-adv-x="560" d="M174 -10T105 57T35 239Q35 314 63 372T146 462T279 495Q355 495 411 464T496 378T525 256Q525 223 504 206T444 188H166Q166 147 201 122T294 97Q341 97 373 110T431 149L497 79Q464 37 412
14T294 -10Q174 -10 105 57ZM394 291Q394 335 362 362T279 390Q231 390 199 363T166 291H394ZM316 743H465L341 554H232L316 743Z" />
<glyph unicode="&#xea;" glyph-name="ecircumflex" horiz-adv-x="560" d="M174 -10T105 57T35 239Q35 314 63 372T146 462T279 495Q355 495 411 464T496 378T525 256Q525 223 504 206T444 188H166Q166 147 201 122T294 97Q341 97 373 110T431 149L497 79Q464 37
412 14T294 -10Q174 -10 105 57ZM394 291Q394 335 362 362T279 390Q231 390 199 363T166 291H394ZM232 713Q248 732 261 739T296 747Q325 747 340 735T356 707Q356 704 354 698L352 692L483 554H347L287 635L232 554H99L232 713Z" />
<glyph unicode="&#xeb;" glyph-name="edieresis" horiz-adv-x="560" d="M174 -10T105 57T35 239Q35 314 63 372T146 462T279 495Q355 495 411 464T496 378T525 256Q525 223 504 206T444 188H166Q166 147 201 122T294 97Q341 97 373 110T431 149L497 79Q464 37
412 14T294 -10Q174 -10 105 57ZM394 291Q394 335 362 362T279 390Q231 390 199 363T166 291H394ZM144 564T122 585T100 638Q100 670 122 691T178 712Q211 712 232 691T254 638Q254 607 233 586T178 564Q144 564 122 585ZM370 564T348 585T326 638Q326 670 348
691T404 712Q437 712 458 691T480 638Q480 607 459 586T404 564Q370 564 348 585Z" />
<glyph unicode="&#xec;" glyph-name="igrave" horiz-adv-x="280" d="M74 485H206V0H74V485ZM-38 743H111L195 554H86L-38 743Z" />
<glyph unicode="&#xed;" glyph-name="iacute" horiz-adv-x="280" d="M74 485H206V0H74V485ZM167 743H316L192 554H83L167 743Z" />
<glyph unicode="&#xee;" glyph-name="icircumflex" horiz-adv-x="280" d="M74 485H206V0H74V485ZM83 713Q99 732 112 739T147 747Q176 747 191 735T207 707Q207 704 205 698L203 692L334 554H198L138 635L83 554H-50L83 713Z" />
<glyph unicode="&#xef;" glyph-name="idieresis" horiz-adv-x="280" d="M74 485H206V0H74V485ZM-5 564T-27 585T-49 638Q-49 670 -27 691T29 712Q62 712 83 691T105 638Q105 607 84 586T29 564Q-5 564 -27 585ZM221 564T199 585T177 638Q177 670 199 691T255 712Q288
712 309 691T331 638Q331 607 310 586T255 564Q221 564 199 585Z" />
<glyph unicode="&#xf0;" glyph-name="eth" horiz-adv-x="658" d="M240 -10T174 22T72 114T35 250Q35 327 70 385T170 475T323 507Q362 507 402 493L405 496Q368 545 324 574L171 503L127 598L222 640Q183 661 125 680L172 773Q229 755 266 739T345 698L501 771L545
676L441 628Q525 554 574 458T623 261Q623 186 586 124T482 26T326 -10Q240 -10 174 22ZM396 99T440 140T485 250Q485 316 441 357T328 399Q259 399 215 358T171 250Q171 182 214 141T327 99Q396 99 440 140Z" />
<glyph unicode="&#xf1;" glyph-name="ntilde" d="M399 20T392 52T384 126V287Q384 388 300 388Q250 388 220 349T189 250V0H57V349Q57 379 53 401T35 450L152 495Q161 479 168 457T177 419Q206 453 248 474T339 495Q432 495 474 442T516 287V129Q516 74 536 34L416
-10Q399 20 392 52ZM112 597Q121 641 151 669T219 698Q245 698 265 690T310 667Q321 660 332 655T353 650Q372 650 382 660T396 696L463 664Q463 615 438 587T371 558Q348 558 328 565T283 586Q266 595 255 599T234 604Q217 604 204 593T187 558L112 597Z" />
<glyph unicode="&#xf2;" glyph-name="ograve" horiz-adv-x="568" d="M209 -11T153 20T66 109T35 242Q35 317 65 374T152 463T284 495Q359 495 415 464T502 375T533 242Q533 167 503 110T416 21T284 -11Q209 -11 153 20ZM341 96T370 134T399 242Q399 311 370 349T284
388Q227 388 198 350T169 242Q169 173 198 135T284 96Q341 96 370 134ZM106 743H255L339 554H230L106 743Z" />
<glyph unicode="&#xf3;" glyph-name="oacute" horiz-adv-x="568" d="M209 -11T153 20T66 109T35 242Q35 317 65 374T152 463T284 495Q359 495 415 464T502 375T533 242Q533 167 503 110T416 21T284 -11Q209 -11 153 20ZM341 96T370 134T399 242Q399 311 370 349T284
388Q227 388 198 350T169 242Q169 173 198 135T284 96Q341 96 370 134ZM311 743H460L336 554H227L311 743Z" />
<glyph unicode="&#xf4;" glyph-name="ocircumflex" horiz-adv-x="568" d="M209 -11T153 20T66 109T35 242Q35 317 65 374T152 463T284 495Q359 495 415 464T502 375T533 242Q533 167 503 110T416 21T284 -11Q209 -11 153 20ZM341 96T370 134T399 242Q399 311 370
349T284 388Q227 388 198 350T169 242Q169 173 198 135T284 96Q341 96 370 134ZM227 713Q243 732 256 739T291 747Q320 747 335 735T351 707Q351 704 349 698L347 692L478 554H342L282 635L227 554H94L227 713Z" />
<glyph unicode="&#xf5;" glyph-name="otilde" horiz-adv-x="568" d="M209 -11T153 20T66 109T35 242Q35 317 65 374T152 463T284 495Q359 495 415 464T502 375T533 242Q533 167 503 110T416 21T284 -11Q209 -11 153 20ZM341 96T370 134T399 242Q399 311 370 349T284
388Q227 388 198 350T169 242Q169 173 198 135T284 96Q341 96 370 134ZM104 597Q113 641 143 669T211 698Q237 698 257 690T302 667Q313 660 324 655T345 650Q364 650 374 660T388 696L455 664Q455 615 430 587T363 558Q340 558 320 565T275 586Q258 595 247 599T226
604Q209 604 196 593T179 558L104 597Z" />
<glyph unicode="&#xf6;" glyph-name="odieresis" horiz-adv-x="568" d="M209 -11T153 20T66 109T35 242Q35 317 65 374T152 463T284 495Q359 495 415 464T502 375T533 242Q533 167 503 110T416 21T284 -11Q209 -11 153 20ZM341 96T370 134T399 242Q399 311 370
349T284 388Q227 388 198 350T169 242Q169 173 198 135T284 96Q341 96 370 134ZM139 564T117 585T95 638Q95 670 117 691T173 712Q206 712 227 691T249 638Q249 607 228 586T173 564Q139 564 117 585ZM365 564T343 585T321 638Q321 670 343 691T399 712Q432 712
453 691T475 638Q475 607 454 586T399 564Q365 564 343 585Z" />
<glyph unicode="&#xf7;" glyph-name="divide" horiz-adv-x="560" d="M247 393T226 414T205 465Q205 495 226 516T280 537Q313 537 334 516T355 465Q355 435 334 414T280 393Q247 393 226 414ZM54 338H506V232H54V338ZM247 33T226 54T205 105Q205 135 226 156T280
177Q313 177 334 156T355 105Q355 75 334 54T280 33Q247 33 226 54Z" />
<glyph unicode="&#xf8;" glyph-name="oslash" horiz-adv-x="568" d="M479 423T506 368T533 242Q533 167 503 110T416 21T284 -11Q227 -11 180 7L137 -71L92 -46L135 31Q87 64 61 118T35 242Q35 317 65 374T152 463T284 495Q337 495 383 478L426 556L471 531L429
455Q479 423 506 368ZM169 177T195 139L329 380Q308 388 284 388Q227 388 198 350T169 242Q169 177 195 139ZM341 96T370 134T399 242Q399 311 370 349L235 106Q255 96 284 96Q341 96 370 134Z" />
<glyph unicode="&#xf9;" glyph-name="ugrave" horiz-adv-x="556" d="M175 -10T132 15T65 88T40 198V485H172V198Q172 97 267 97Q317 97 342 130T367 219V485H499V136Q499 106 503 84T521 35L404 -10Q395 6 388 28T379 66Q329 -10 231 -10Q175 -10 132 15ZM104
743H253L337 554H228L104 743Z" />
<glyph unicode="&#xfa;" glyph-name="uacute" horiz-adv-x="556" d="M175 -10T132 15T65 88T40 198V485H172V198Q172 97 267 97Q317 97 342 130T367 219V485H499V136Q499 106 503 84T521 35L404 -10Q395 6 388 28T379 66Q329 -10 231 -10Q175 -10 132 15ZM309
743H458L334 554H225L309 743Z" />
<glyph unicode="&#xfb;" glyph-name="ucircumflex" horiz-adv-x="556" d="M175 -10T132 15T65 88T40 198V485H172V198Q172 97 267 97Q317 97 342 130T367 219V485H499V136Q499 106 503 84T521 35L404 -10Q395 6 388 28T379 66Q329 -10 231 -10Q175 -10 132 15ZM225
713Q241 732 254 739T289 747Q318 747 333 735T349 707Q349 704 347 698L345 692L476 554H340L280 635L225 554H92L225 713Z" />
<glyph unicode="&#xfc;" glyph-name="udieresis" horiz-adv-x="556" d="M175 -10T132 15T65 88T40 198V485H172V198Q172 97 267 97Q317 97 342 130T367 219V485H499V136Q499 106 503 84T521 35L404 -10Q395 6 388 28T379 66Q329 -10 231 -10Q175 -10 132 15ZM137
564T115 585T93 638Q93 670 115 691T171 712Q204 712 225 691T247 638Q247 607 226 586T171 564Q137 564 115 585ZM363 564T341 585T319 638Q319 670 341 691T397 712Q430 712 451 691T473 638Q473 607 452 586T397 564Q363 564 341 585Z" />
<glyph unicode="&#xfd;" glyph-name="yacute" horiz-adv-x="589" d="M69 -123Q137 -100 176 -63T232 43L35 485H188L300 187L402 485H554L357 -2Q319 -95 263 -146T107 -229L69 -123ZM323 743H472L348 554H239L323 743Z" />
<glyph unicode="&#xfe;" glyph-name="thorn" horiz-adv-x="570" d="M40 704H172V439Q197 466 234 481T317 497Q380 497 429 467T507 380T535 244Q535 165 507 108T427 22T309 -8Q267 -8 232 7T172 50V-219H40V704ZM403 97T403 244Q403 315 374 353T290 392Q231
392 201 355T170 254V236Q170 178 200 138T286 97Q403 97 403 244Z" />
<glyph unicode="&#xff;" glyph-name="ydieresis" horiz-adv-x="589" d="M69 -123Q137 -100 176 -63T232 43L35 485H188L300 187L402 485H554L357 -2Q319 -95 263 -146T107 -229L69 -123ZM151 564T129 585T107 638Q107 670 129 691T185 712Q218 712 239 691T261
638Q261 607 240 586T185 564Q151 564 129 585ZM377 564T355 585T333 638Q333 670 355 691T411 712Q444 712 465 691T487 638Q487 607 466 586T411 564Q377 564 355 585Z" />
<glyph unicode="&#x2013;" glyph-name="endash" horiz-adv-x="627" d="M35 338H592V232H35V338Z" />
<glyph unicode="&#x2014;" glyph-name="emdash" horiz-adv-x="800" d="M35 338H765V232H35V338Z" />
<glyph unicode="&#x2018;" glyph-name="quoteleft" horiz-adv-x="250" d="M80 417T58 440T35 504Q35 560 73 608T180 687L215 621Q191 612 170 595T140 560Q167 559 185 539T203 494Q203 459 180 438T120 417Q80 417 58 440Z" />
<glyph unicode="&#x2019;" glyph-name="quoteright" horiz-adv-x="250" d="M35 483Q59 492 80 509T110 544Q83 545 65 565T47 610Q47 645 70 666T130 687Q170 687 192 664T215 600Q215 544 177 496T70 417L35 483Z" />
<glyph unicode="&#x201a;" glyph-name="quotesinglbase" horiz-adv-x="250" d="M35 -108Q59 -99 80 -82T110 -47Q83 -46 65 -26T47 19Q47 54 70 75T130 96Q170 96 192 73T215 9Q215 -47 177 -95T70 -174L35 -108Z" />
<glyph unicode="&#x201c;" glyph-name="quotedblleft" horiz-adv-x="445" d="M80 417T58 440T35 504Q35 560 73 608T180 687L215 621Q191 612 170 595T140 560Q167 559 185 539T203 494Q203 459 180 438T120 417Q80 417 58 440ZM275 417T253 440T230 504Q230 560
268 608T375 687L410 621Q386 612 365 595T335 560Q362 559 380 539T398 494Q398 459 375 438T315 417Q275 417 253 440Z" />
<glyph unicode="&#x201d;" glyph-name="quotedblright" horiz-adv-x="445" d="M35 483Q59 492 80 509T110 544Q83 545 65 565T47 610Q47 645 70 666T130 687Q170 687 192 664T215 600Q215 544 177 496T70 417L35 483ZM230 483Q254 492 275 509T305 544Q278 545
260 565T242 610Q242 645 265 666T325 687Q365 687 387 664T410 600Q410 544 372 496T265 417L230 483Z" />
<glyph unicode="&#x201e;" glyph-name="quotedblbase" horiz-adv-x="445" d="M35 -108Q59 -99 80 -82T110 -47Q83 -46 65 -26T47 19Q47 54 70 75T130 96Q170 96 192 73T215 9Q215 -47 177 -95T70 -174L35 -108ZM230 -108Q254 -99 275 -82T305 -47Q278 -46 260
-26T242 19Q242 54 265 75T325 96Q365 96 387 73T410 9Q410 -47 372 -95T265 -174L230 -108Z" />
<glyph unicode="&#x2022;" glyph-name="bullet" horiz-adv-x="394" d="M127 123T81 165T35 274Q35 343 81 386T197 429Q267 429 313 386T359 274Q359 207 313 165T197 123Q127 123 81 165Z" />
<glyph unicode="&#x2039;" glyph-name="guilsinglleft" horiz-adv-x="344" d="M43 233Q35 245 35 260Q35 275 43 287L170 477H309L170 260L309 43H170L43 233Z" />
<glyph unicode="&#x203a;" glyph-name="guilsinglright" horiz-adv-x="344" d="M174 260L35 477H174L301 287Q309 275 309 260Q309 245 301 233L174 43H35L174 260Z" />
</font>
</defs>
</svg>
